<?xml version="1.0" encoding="UTF-8" standalone="no"?>
<svg width="512" height="512" viewBox="0 0 512 512" fill="none" xmlns="http://www.w3.org/2000/svg">
  <circle cx="256" cy="256" r="240" fill="#1A1A1A"/>
  <path fill-rule="evenodd" clip-rule="evenodd" d="M256 90C164.471 90 90 164.471 90 256C90 347.529 164.471 422 256 422C347.529 422 422 347.529 422 256C422 164.471 347.529 90 256 90ZM256 150C197.633 150 150 197.633 150 256C150 314.367 197.633 362 256 362C314.367 362 362 314.367 362 256C362 197.633 314.367 150 256 150Z" fill="#B1975B"/>
  <path d="M256 175C211.817 175 176 210.817 176 255C176 299.183 211.817 335 256 335C300.183 335 336 299.183 336 255C336 210.817 300.183 175 256 175Z" fill="#B1975B"/>
</svg>
